<mxfile host="Electron" modified="2024-04-13T10:27:24.567Z" agent="Mozilla/5.0 (Windows NT 10.0; Win64; x64) AppleWebKit/537.36 (KHTML, like Gecko) draw.io/24.1.0 Chrome/120.0.6099.109 Electron/28.1.0 Safari/537.36" etag="RCwpb4UJ-Z8-q_UEClbP" version="24.1.0" type="device" pages="5">
  <diagram name="Use-Case Diagram" id="KcRibwasmvVvdM6dy5NE">
    <mxGraphModel dx="1050" dy="669" grid="1" gridSize="10" guides="1" tooltips="1" connect="1" arrows="1" fold="1" page="1" pageScale="1" pageWidth="4681" pageHeight="3300" math="0" shadow="0">
      <root>
        <mxCell id="0" />
        <mxCell id="1" parent="0" />
        <mxCell id="0DPw3A4Dp9pLK03k4MNu-14" value="Actor" style="shape=umlActor;verticalLabelPosition=bottom;verticalAlign=top;html=1;outlineConnect=0;" vertex="1" parent="1">
          <mxGeometry x="940" y="690" width="30" height="60" as="geometry" />
        </mxCell>
        <mxCell id="0DPw3A4Dp9pLK03k4MNu-15" value="Register" style="ellipse;whiteSpace=wrap;html=1;" vertex="1" parent="1">
          <mxGeometry x="1197.5" y="530" width="120" height="80" as="geometry" />
        </mxCell>
        <mxCell id="0DPw3A4Dp9pLK03k4MNu-17" value="" style="endArrow=none;html=1;rounded=0;entryX=0;entryY=1;entryDx=0;entryDy=0;" edge="1" parent="1" source="0DPw3A4Dp9pLK03k4MNu-14" target="0DPw3A4Dp9pLK03k4MNu-15">
          <mxGeometry width="50" height="50" relative="1" as="geometry">
            <mxPoint x="1250" y="770" as="sourcePoint" />
            <mxPoint x="1300" y="720" as="targetPoint" />
          </mxGeometry>
        </mxCell>
        <mxCell id="0DPw3A4Dp9pLK03k4MNu-18" value="" style="endArrow=none;html=1;rounded=0;entryX=0;entryY=0.5;entryDx=0;entryDy=0;" edge="1" parent="1" source="0DPw3A4Dp9pLK03k4MNu-14" target="0DPw3A4Dp9pLK03k4MNu-23">
          <mxGeometry width="50" height="50" relative="1" as="geometry">
            <mxPoint x="980" y="764" as="sourcePoint" />
            <mxPoint x="1150" y="750" as="targetPoint" />
          </mxGeometry>
        </mxCell>
        <mxCell id="0DPw3A4Dp9pLK03k4MNu-19" value="Extends" style="endArrow=block;endSize=16;endFill=0;html=1;rounded=0;exitX=0.5;exitY=0;exitDx=0;exitDy=0;entryX=0.5;entryY=1;entryDx=0;entryDy=0;" edge="1" parent="1" source="0DPw3A4Dp9pLK03k4MNu-21" target="0DPw3A4Dp9pLK03k4MNu-15">
          <mxGeometry width="160" relative="1" as="geometry">
            <mxPoint x="1210" y="710" as="sourcePoint" />
            <mxPoint x="1360" y="750" as="targetPoint" />
          </mxGeometry>
        </mxCell>
        <mxCell id="0DPw3A4Dp9pLK03k4MNu-20" value="" style="shape=ellipse;container=1;horizontal=1;horizontalStack=0;resizeParent=1;resizeParentMax=0;resizeLast=0;html=1;dashed=0;collapsible=0;" vertex="1" parent="1">
          <mxGeometry x="1135" y="750" width="251.13" height="210" as="geometry" />
        </mxCell>
        <mxCell id="0DPw3A4Dp9pLK03k4MNu-21" value="Login" style="html=1;strokeColor=none;fillColor=none;align=center;verticalAlign=middle;rotatable=0;whiteSpace=wrap;" vertex="1" parent="0DPw3A4Dp9pLK03k4MNu-20">
          <mxGeometry width="245.00000000000003" height="52.5" as="geometry" />
        </mxCell>
        <mxCell id="0DPw3A4Dp9pLK03k4MNu-22" value="" style="line;strokeWidth=1;fillColor=none;rotatable=0;labelPosition=right;points=[];portConstraint=eastwest;dashed=0;resizeWidth=1;" vertex="1" parent="0DPw3A4Dp9pLK03k4MNu-20">
          <mxGeometry x="12.25" y="52.5" width="220.5" height="17.5" as="geometry" />
        </mxCell>
        <mxCell id="0DPw3A4Dp9pLK03k4MNu-23" value="extension points" style="text;html=1;align=center;verticalAlign=middle;rotatable=0;fillColor=none;strokeColor=none;whiteSpace=wrap;" vertex="1" parent="0DPw3A4Dp9pLK03k4MNu-20">
          <mxGeometry y="60" width="245.00000000000003" height="52.5" as="geometry" />
        </mxCell>
        <mxCell id="0DPw3A4Dp9pLK03k4MNu-24" value="Chưa có tài khoản" style="text;html=1;align=left;verticalAlign=middle;rotatable=0;spacingLeft=25;fillColor=none;strokeColor=none;whiteSpace=wrap;" vertex="1" parent="0DPw3A4Dp9pLK03k4MNu-20">
          <mxGeometry x="51.120000000000005" y="91.88" width="148.88" height="52.5" as="geometry" />
        </mxCell>
        <mxCell id="0DPw3A4Dp9pLK03k4MNu-29" value="Quên mật khẩu" style="text;html=1;align=left;verticalAlign=middle;rotatable=0;spacingLeft=25;fillColor=none;strokeColor=none;whiteSpace=wrap;" vertex="1" parent="0DPw3A4Dp9pLK03k4MNu-20">
          <mxGeometry x="59.19" y="120.01" width="132.75" height="52.5" as="geometry" />
        </mxCell>
        <mxCell id="0DPw3A4Dp9pLK03k4MNu-32" value="Thay đổi thông tin người dùng" style="text;html=1;align=left;verticalAlign=middle;rotatable=0;spacingLeft=25;fillColor=none;strokeColor=none;whiteSpace=wrap;" vertex="1" parent="0DPw3A4Dp9pLK03k4MNu-20">
          <mxGeometry x="58.06" y="160" width="128.87" height="40" as="geometry" />
        </mxCell>
        <mxCell id="0DPw3A4Dp9pLK03k4MNu-30" value="Extends" style="endArrow=block;endSize=16;endFill=0;html=1;rounded=0;exitX=1;exitY=0.5;exitDx=0;exitDy=0;entryX=0;entryY=1;entryDx=0;entryDy=0;" edge="1" parent="1" source="0DPw3A4Dp9pLK03k4MNu-23" target="0DPw3A4Dp9pLK03k4MNu-31">
          <mxGeometry width="160" relative="1" as="geometry">
            <mxPoint x="1410" y="940" as="sourcePoint" />
            <mxPoint x="1410" y="800" as="targetPoint" />
          </mxGeometry>
        </mxCell>
        <mxCell id="0DPw3A4Dp9pLK03k4MNu-31" value="Thay đổi mật khẩu" style="ellipse;whiteSpace=wrap;html=1;" vertex="1" parent="1">
          <mxGeometry x="1540" y="680" width="140" height="70" as="geometry" />
        </mxCell>
        <mxCell id="0DPw3A4Dp9pLK03k4MNu-33" value="Extends" style="endArrow=block;endSize=16;endFill=0;html=1;rounded=0;entryX=0;entryY=0.5;entryDx=0;entryDy=0;" edge="1" target="0DPw3A4Dp9pLK03k4MNu-34" parent="1" source="0DPw3A4Dp9pLK03k4MNu-20">
          <mxGeometry width="160" relative="1" as="geometry">
            <mxPoint x="1400" y="966" as="sourcePoint" />
            <mxPoint x="1430" y="930" as="targetPoint" />
          </mxGeometry>
        </mxCell>
        <mxCell id="0DPw3A4Dp9pLK03k4MNu-34" value="Cập nhật thông tin" style="ellipse;whiteSpace=wrap;html=1;" vertex="1" parent="1">
          <mxGeometry x="1570" y="890" width="140" height="70" as="geometry" />
        </mxCell>
        <mxCell id="0DPw3A4Dp9pLK03k4MNu-36" value="" style="shape=ellipse;container=1;horizontal=1;horizontalStack=0;resizeParent=1;resizeParentMax=0;resizeLast=0;html=1;dashed=0;collapsible=0;" vertex="1" parent="1">
          <mxGeometry x="650" y="842" width="180" height="120" as="geometry" />
        </mxCell>
        <mxCell id="0DPw3A4Dp9pLK03k4MNu-37" value="Flashcard" style="html=1;strokeColor=none;fillColor=none;align=center;verticalAlign=middle;rotatable=0;whiteSpace=wrap;" vertex="1" parent="0DPw3A4Dp9pLK03k4MNu-36">
          <mxGeometry width="180" height="30" as="geometry" />
        </mxCell>
        <mxCell id="0DPw3A4Dp9pLK03k4MNu-38" value="" style="line;strokeWidth=1;fillColor=none;rotatable=0;labelPosition=right;points=[];portConstraint=eastwest;dashed=0;resizeWidth=1;" vertex="1" parent="0DPw3A4Dp9pLK03k4MNu-36">
          <mxGeometry x="9" y="30" width="162" height="10" as="geometry" />
        </mxCell>
        <mxCell id="0DPw3A4Dp9pLK03k4MNu-39" value="extension points" style="text;html=1;align=center;verticalAlign=middle;rotatable=0;fillColor=none;strokeColor=none;whiteSpace=wrap;" vertex="1" parent="0DPw3A4Dp9pLK03k4MNu-36">
          <mxGeometry y="40" width="180" height="30" as="geometry" />
        </mxCell>
        <mxCell id="0DPw3A4Dp9pLK03k4MNu-40" value="Có bộ từ vựng" style="text;html=1;align=left;verticalAlign=middle;rotatable=0;spacingLeft=25;fillColor=none;strokeColor=none;whiteSpace=wrap;" vertex="1" parent="0DPw3A4Dp9pLK03k4MNu-36">
          <mxGeometry x="20" y="70" width="130" height="30" as="geometry" />
        </mxCell>
        <mxCell id="0DPw3A4Dp9pLK03k4MNu-41" value="" style="endArrow=none;html=1;rounded=0;entryX=0.5;entryY=0;entryDx=0;entryDy=0;" edge="1" parent="1" source="0DPw3A4Dp9pLK03k4MNu-14" target="0DPw3A4Dp9pLK03k4MNu-37">
          <mxGeometry width="50" height="50" relative="1" as="geometry">
            <mxPoint x="810" y="810" as="sourcePoint" />
            <mxPoint x="975" y="916" as="targetPoint" />
          </mxGeometry>
        </mxCell>
        <mxCell id="0DPw3A4Dp9pLK03k4MNu-42" value="Xem lại từ vựng" style="ellipse;whiteSpace=wrap;html=1;" vertex="1" parent="1">
          <mxGeometry x="360" y="810" width="140" height="70" as="geometry" />
        </mxCell>
        <mxCell id="0DPw3A4Dp9pLK03k4MNu-43" value="Extends" style="endArrow=block;endSize=16;endFill=0;html=1;rounded=0;exitX=0.036;exitY=0.71;exitDx=0;exitDy=0;entryX=1;entryY=0.5;entryDx=0;entryDy=0;exitPerimeter=0;" edge="1" parent="1" source="0DPw3A4Dp9pLK03k4MNu-36" target="0DPw3A4Dp9pLK03k4MNu-42">
          <mxGeometry width="160" relative="1" as="geometry">
            <mxPoint x="520" y="830" as="sourcePoint" />
            <mxPoint x="520" y="690" as="targetPoint" />
          </mxGeometry>
        </mxCell>
        <mxCell id="0DPw3A4Dp9pLK03k4MNu-44" value="Thêm bộ từ vựng" style="ellipse;whiteSpace=wrap;html=1;" vertex="1" parent="1">
          <mxGeometry x="360" y="1010" width="140" height="70" as="geometry" />
        </mxCell>
        <mxCell id="0DPw3A4Dp9pLK03k4MNu-45" value="Chỉnh sửa bộ từ vựng" style="ellipse;whiteSpace=wrap;html=1;" vertex="1" parent="1">
          <mxGeometry x="530" y="1150" width="140" height="70" as="geometry" />
        </mxCell>
        <mxCell id="0DPw3A4Dp9pLK03k4MNu-46" value="Extends" style="endArrow=block;endSize=16;endFill=0;html=1;rounded=0;exitX=0;exitY=0.5;exitDx=0;exitDy=0;entryX=1;entryY=1;entryDx=0;entryDy=0;" edge="1" parent="1" source="0DPw3A4Dp9pLK03k4MNu-44" target="0DPw3A4Dp9pLK03k4MNu-47">
          <mxGeometry width="160" relative="1" as="geometry">
            <mxPoint x="346" y="1050" as="sourcePoint" />
            <mxPoint x="280" y="1020" as="targetPoint" />
          </mxGeometry>
        </mxCell>
        <mxCell id="0DPw3A4Dp9pLK03k4MNu-47" value="Thêm từ vựng" style="ellipse;whiteSpace=wrap;html=1;" vertex="1" parent="1">
          <mxGeometry x="110" y="950" width="140" height="70" as="geometry" />
        </mxCell>
        <mxCell id="0DPw3A4Dp9pLK03k4MNu-48" value="Extends" style="endArrow=block;endSize=16;endFill=0;html=1;rounded=0;exitX=0.124;exitY=0.897;exitDx=0;exitDy=0;entryX=1;entryY=0.5;entryDx=0;entryDy=0;exitPerimeter=0;" edge="1" parent="1" source="0DPw3A4Dp9pLK03k4MNu-36" target="0DPw3A4Dp9pLK03k4MNu-44">
          <mxGeometry width="160" relative="1" as="geometry">
            <mxPoint x="646" y="1072" as="sourcePoint" />
            <mxPoint x="490" y="990" as="targetPoint" />
          </mxGeometry>
        </mxCell>
        <mxCell id="0DPw3A4Dp9pLK03k4MNu-49" value="Extends" style="endArrow=block;endSize=16;endFill=0;html=1;rounded=0;exitX=0.5;exitY=1;exitDx=0;exitDy=0;entryX=1;entryY=0;entryDx=0;entryDy=0;" edge="1" parent="1" source="0DPw3A4Dp9pLK03k4MNu-36" target="0DPw3A4Dp9pLK03k4MNu-45">
          <mxGeometry width="160" relative="1" as="geometry">
            <mxPoint x="682" y="960" as="sourcePoint" />
            <mxPoint x="510" y="1055" as="targetPoint" />
          </mxGeometry>
        </mxCell>
        <mxCell id="0DPw3A4Dp9pLK03k4MNu-50" value="&amp;lt;&amp;lt;include&amp;gt;&amp;gt;" style="html=1;verticalAlign=bottom;labelBackgroundColor=none;endArrow=open;endFill=0;dashed=1;rounded=0;exitX=0;exitY=0.5;exitDx=0;exitDy=0;entryX=1;entryY=0;entryDx=0;entryDy=0;" edge="1" parent="1" source="0DPw3A4Dp9pLK03k4MNu-45" target="0DPw3A4Dp9pLK03k4MNu-51">
          <mxGeometry width="160" relative="1" as="geometry">
            <mxPoint x="660" y="1230" as="sourcePoint" />
            <mxPoint x="390" y="1250" as="targetPoint" />
          </mxGeometry>
        </mxCell>
        <mxCell id="0DPw3A4Dp9pLK03k4MNu-51" value="Chỉnh sửa từ" style="ellipse;whiteSpace=wrap;html=1;" vertex="1" parent="1">
          <mxGeometry x="260" y="1240" width="140" height="70" as="geometry" />
        </mxCell>
        <mxCell id="0DPw3A4Dp9pLK03k4MNu-52" value="Chỉnh sửa thông tin bộ từ vựng" style="ellipse;whiteSpace=wrap;html=1;" vertex="1" parent="1">
          <mxGeometry x="490" y="1340" width="140" height="70" as="geometry" />
        </mxCell>
        <mxCell id="0DPw3A4Dp9pLK03k4MNu-53" value="&amp;lt;&amp;lt;include&amp;gt;&amp;gt;" style="html=1;verticalAlign=bottom;labelBackgroundColor=none;endArrow=open;endFill=0;dashed=1;rounded=0;exitX=0.5;exitY=1;exitDx=0;exitDy=0;entryX=0.5;entryY=0;entryDx=0;entryDy=0;" edge="1" parent="1" source="0DPw3A4Dp9pLK03k4MNu-45" target="0DPw3A4Dp9pLK03k4MNu-52">
          <mxGeometry width="160" relative="1" as="geometry">
            <mxPoint x="620" y="1290" as="sourcePoint" />
            <mxPoint x="480" y="1355" as="targetPoint" />
          </mxGeometry>
        </mxCell>
      </root>
    </mxGraphModel>
  </diagram>
  <diagram id="gP70hhocbkEgdNil8nW2" name="Register_activity">
    <mxGraphModel dx="1050" dy="669" grid="1" gridSize="10" guides="1" tooltips="1" connect="1" arrows="1" fold="1" page="1" pageScale="1" pageWidth="3300" pageHeight="4681" math="0" shadow="0">
      <root>
        <mxCell id="0" />
        <mxCell id="1" parent="0" />
        <mxCell id="aPFZw-jt1aRynHHRrmMn-6" style="edgeStyle=orthogonalEdgeStyle;rounded=0;orthogonalLoop=1;jettySize=auto;html=1;exitX=0.5;exitY=1;exitDx=0;exitDy=0;entryX=0.5;entryY=0;entryDx=0;entryDy=0;" edge="1" parent="1" source="aPFZw-jt1aRynHHRrmMn-1" target="aPFZw-jt1aRynHHRrmMn-2">
          <mxGeometry relative="1" as="geometry" />
        </mxCell>
        <mxCell id="aPFZw-jt1aRynHHRrmMn-1" value="" style="ellipse;fillColor=strokeColor;html=1;" vertex="1" parent="1">
          <mxGeometry x="550" y="440" width="30" height="30" as="geometry" />
        </mxCell>
        <mxCell id="aPFZw-jt1aRynHHRrmMn-8" value="" style="edgeStyle=orthogonalEdgeStyle;rounded=0;orthogonalLoop=1;jettySize=auto;html=1;" edge="1" parent="1" source="aPFZw-jt1aRynHHRrmMn-2" target="aPFZw-jt1aRynHHRrmMn-7">
          <mxGeometry relative="1" as="geometry" />
        </mxCell>
        <mxCell id="aPFZw-jt1aRynHHRrmMn-2" value="Điền thông tin vào trong user_form" style="html=1;align=center;verticalAlign=top;rounded=1;absoluteArcSize=1;arcSize=10;dashed=0;whiteSpace=wrap;" vertex="1" parent="1">
          <mxGeometry x="495" y="540" width="140" height="40" as="geometry" />
        </mxCell>
        <mxCell id="aPFZw-jt1aRynHHRrmMn-3" value="Register" style="shape=note2;boundedLbl=1;whiteSpace=wrap;html=1;size=25;verticalAlign=top;align=center;" vertex="1" parent="1">
          <mxGeometry x="330" y="330" width="120" height="60" as="geometry" />
        </mxCell>
        <mxCell id="aPFZw-jt1aRynHHRrmMn-5" style="edgeStyle=orthogonalEdgeStyle;rounded=0;orthogonalLoop=1;jettySize=auto;html=1;entryX=0;entryY=0.5;entryDx=0;entryDy=0;" edge="1" parent="1" source="aPFZw-jt1aRynHHRrmMn-4" target="aPFZw-jt1aRynHHRrmMn-1">
          <mxGeometry relative="1" as="geometry" />
        </mxCell>
        <mxCell id="aPFZw-jt1aRynHHRrmMn-4" value="Người dùng chưa có tài khoản" style="fontStyle=0;html=1;whiteSpace=wrap;" vertex="1" parent="1">
          <mxGeometry x="230" y="435" width="120" height="40" as="geometry" />
        </mxCell>
        <mxCell id="aPFZw-jt1aRynHHRrmMn-9" style="edgeStyle=orthogonalEdgeStyle;rounded=0;orthogonalLoop=1;jettySize=auto;html=1;entryX=1;entryY=0.5;entryDx=0;entryDy=0;" edge="1" parent="1" source="aPFZw-jt1aRynHHRrmMn-7" target="aPFZw-jt1aRynHHRrmMn-2">
          <mxGeometry relative="1" as="geometry">
            <Array as="points">
              <mxPoint x="655" y="685" />
              <mxPoint x="655" y="560" />
            </Array>
          </mxGeometry>
        </mxCell>
        <mxCell id="aPFZw-jt1aRynHHRrmMn-13" style="edgeStyle=orthogonalEdgeStyle;rounded=0;orthogonalLoop=1;jettySize=auto;html=1;entryX=0.5;entryY=0;entryDx=0;entryDy=0;" edge="1" parent="1" source="aPFZw-jt1aRynHHRrmMn-7" target="aPFZw-jt1aRynHHRrmMn-12">
          <mxGeometry relative="1" as="geometry" />
        </mxCell>
        <mxCell id="aPFZw-jt1aRynHHRrmMn-7" value="" style="rhombus;" vertex="1" parent="1">
          <mxGeometry x="550" y="670" width="30" height="30" as="geometry" />
        </mxCell>
        <mxCell id="aPFZw-jt1aRynHHRrmMn-10" value="Không hợp lệ" style="text;html=1;align=center;verticalAlign=middle;resizable=0;points=[];autosize=1;strokeColor=none;fillColor=none;" vertex="1" parent="1">
          <mxGeometry x="660" y="620" width="100" height="30" as="geometry" />
        </mxCell>
        <mxCell id="aPFZw-jt1aRynHHRrmMn-15" style="edgeStyle=orthogonalEdgeStyle;rounded=0;orthogonalLoop=1;jettySize=auto;html=1;entryX=0.5;entryY=0;entryDx=0;entryDy=0;" edge="1" parent="1" source="aPFZw-jt1aRynHHRrmMn-12" target="aPFZw-jt1aRynHHRrmMn-14">
          <mxGeometry relative="1" as="geometry" />
        </mxCell>
        <mxCell id="aPFZw-jt1aRynHHRrmMn-12" value="Thông báo đăng kí thành công (register_done)" style="html=1;align=center;verticalAlign=top;rounded=1;absoluteArcSize=1;arcSize=10;dashed=0;whiteSpace=wrap;" vertex="1" parent="1">
          <mxGeometry x="495" y="790" width="140" height="40" as="geometry" />
        </mxCell>
        <mxCell id="aPFZw-jt1aRynHHRrmMn-18" style="edgeStyle=orthogonalEdgeStyle;rounded=0;orthogonalLoop=1;jettySize=auto;html=1;entryX=1;entryY=0.5;entryDx=0;entryDy=0;" edge="1" parent="1" source="aPFZw-jt1aRynHHRrmMn-14" target="aPFZw-jt1aRynHHRrmMn-16">
          <mxGeometry relative="1" as="geometry" />
        </mxCell>
        <mxCell id="aPFZw-jt1aRynHHRrmMn-19" style="edgeStyle=orthogonalEdgeStyle;rounded=0;orthogonalLoop=1;jettySize=auto;html=1;" edge="1" parent="1" source="aPFZw-jt1aRynHHRrmMn-14">
          <mxGeometry relative="1" as="geometry">
            <mxPoint x="565" y="1030" as="targetPoint" />
          </mxGeometry>
        </mxCell>
        <mxCell id="aPFZw-jt1aRynHHRrmMn-14" value="" style="rhombus;" vertex="1" parent="1">
          <mxGeometry x="550" y="910" width="30" height="30" as="geometry" />
        </mxCell>
        <mxCell id="aPFZw-jt1aRynHHRrmMn-16" value="Login&amp;nbsp;" style="html=1;align=center;verticalAlign=top;rounded=1;absoluteArcSize=1;arcSize=10;dashed=0;whiteSpace=wrap;" vertex="1" parent="1">
          <mxGeometry x="290" y="905" width="140" height="40" as="geometry" />
        </mxCell>
        <mxCell id="aPFZw-jt1aRynHHRrmMn-20" value="" style="ellipse;html=1;shape=endState;fillColor=strokeColor;" vertex="1" parent="1">
          <mxGeometry x="550" y="1030" width="30" height="30" as="geometry" />
        </mxCell>
      </root>
    </mxGraphModel>
  </diagram>
  <diagram id="cXgwg4G63426jOUSIh5y" name="Login_activity">
    <mxGraphModel dx="1050" dy="669" grid="1" gridSize="10" guides="1" tooltips="1" connect="1" arrows="1" fold="1" page="1" pageScale="1" pageWidth="3300" pageHeight="4681" math="0" shadow="0">
      <root>
        <mxCell id="0" />
        <mxCell id="1" parent="0" />
        <mxCell id="0ZyoxE8hcd6cBAoxdiCI-2" style="edgeStyle=orthogonalEdgeStyle;rounded=0;orthogonalLoop=1;jettySize=auto;html=1;" edge="1" parent="1" source="UIgjYERl8v2XoCaLod8m-1" target="0ZyoxE8hcd6cBAoxdiCI-1">
          <mxGeometry relative="1" as="geometry" />
        </mxCell>
        <mxCell id="UIgjYERl8v2XoCaLod8m-1" value="" style="ellipse;fillColor=strokeColor;html=1;" vertex="1" parent="1">
          <mxGeometry x="690" y="175" width="30" height="30" as="geometry" />
        </mxCell>
        <mxCell id="eWtBvS3ugPcyO3-SCLPH-6" style="edgeStyle=orthogonalEdgeStyle;rounded=0;orthogonalLoop=1;jettySize=auto;html=1;entryX=0;entryY=0.5;entryDx=0;entryDy=0;" edge="1" parent="1" source="eWtBvS3ugPcyO3-SCLPH-5" target="UIgjYERl8v2XoCaLod8m-1">
          <mxGeometry relative="1" as="geometry" />
        </mxCell>
        <mxCell id="eWtBvS3ugPcyO3-SCLPH-5" value="Người dùng đã có tài khoản" style="fontStyle=0;html=1;whiteSpace=wrap;" vertex="1" parent="1">
          <mxGeometry x="320" y="170" width="120" height="40" as="geometry" />
        </mxCell>
        <mxCell id="ZAMnJX0O_FJBbpvH_zeM-2" style="edgeStyle=orthogonalEdgeStyle;rounded=0;orthogonalLoop=1;jettySize=auto;html=1;entryX=0.5;entryY=0;entryDx=0;entryDy=0;" edge="1" parent="1" source="0ZyoxE8hcd6cBAoxdiCI-1" target="ZAMnJX0O_FJBbpvH_zeM-1">
          <mxGeometry relative="1" as="geometry" />
        </mxCell>
        <mxCell id="0ZyoxE8hcd6cBAoxdiCI-1" value="Điền thông tin user_form" style="html=1;align=center;verticalAlign=top;rounded=1;absoluteArcSize=1;arcSize=10;dashed=0;whiteSpace=wrap;" vertex="1" parent="1">
          <mxGeometry x="632.5" y="295" width="145" height="40" as="geometry" />
        </mxCell>
        <mxCell id="ZAMnJX0O_FJBbpvH_zeM-3" style="edgeStyle=orthogonalEdgeStyle;rounded=0;orthogonalLoop=1;jettySize=auto;html=1;" edge="1" parent="1" source="ZAMnJX0O_FJBbpvH_zeM-1">
          <mxGeometry relative="1" as="geometry">
            <mxPoint x="705" y="595" as="targetPoint" />
          </mxGeometry>
        </mxCell>
        <mxCell id="ZAMnJX0O_FJBbpvH_zeM-6" style="edgeStyle=orthogonalEdgeStyle;rounded=0;orthogonalLoop=1;jettySize=auto;html=1;entryX=1;entryY=0.5;entryDx=0;entryDy=0;" edge="1" parent="1" source="ZAMnJX0O_FJBbpvH_zeM-1" target="0ZyoxE8hcd6cBAoxdiCI-1">
          <mxGeometry relative="1" as="geometry">
            <Array as="points">
              <mxPoint x="798" y="470" />
              <mxPoint x="798" y="315" />
            </Array>
          </mxGeometry>
        </mxCell>
        <mxCell id="jWy54cKQOk2yrm8p4zMF-2" style="edgeStyle=orthogonalEdgeStyle;rounded=0;orthogonalLoop=1;jettySize=auto;html=1;entryX=1;entryY=0.5;entryDx=0;entryDy=0;" edge="1" parent="1" source="ZAMnJX0O_FJBbpvH_zeM-1" target="jWy54cKQOk2yrm8p4zMF-1">
          <mxGeometry relative="1" as="geometry" />
        </mxCell>
        <mxCell id="ZAMnJX0O_FJBbpvH_zeM-1" value="" style="rhombus;" vertex="1" parent="1">
          <mxGeometry x="690" y="455" width="30" height="30" as="geometry" />
        </mxCell>
        <mxCell id="ZAMnJX0O_FJBbpvH_zeM-9" style="edgeStyle=orthogonalEdgeStyle;rounded=0;orthogonalLoop=1;jettySize=auto;html=1;" edge="1" parent="1" source="ZAMnJX0O_FJBbpvH_zeM-4">
          <mxGeometry relative="1" as="geometry">
            <mxPoint x="705" y="745" as="targetPoint" />
          </mxGeometry>
        </mxCell>
        <mxCell id="ZAMnJX0O_FJBbpvH_zeM-4" value="Truy cập home.html" style="html=1;align=center;verticalAlign=top;rounded=1;absoluteArcSize=1;arcSize=10;dashed=0;whiteSpace=wrap;" vertex="1" parent="1">
          <mxGeometry x="635" y="595" width="140" height="40" as="geometry" />
        </mxCell>
        <mxCell id="ZAMnJX0O_FJBbpvH_zeM-8" value="Không hợp lệ&amp;nbsp;&lt;div&gt;or sai thông tin&lt;div&gt;&lt;br&gt;&lt;/div&gt;&lt;/div&gt;" style="text;html=1;align=center;verticalAlign=middle;resizable=0;points=[];autosize=1;strokeColor=none;fillColor=none;" vertex="1" parent="1">
          <mxGeometry x="800" y="405" width="100" height="60" as="geometry" />
        </mxCell>
        <mxCell id="ZAMnJX0O_FJBbpvH_zeM-12" style="edgeStyle=orthogonalEdgeStyle;rounded=0;orthogonalLoop=1;jettySize=auto;html=1;entryX=1;entryY=0.5;entryDx=0;entryDy=0;" edge="1" parent="1" source="ZAMnJX0O_FJBbpvH_zeM-10" target="ZAMnJX0O_FJBbpvH_zeM-11">
          <mxGeometry relative="1" as="geometry" />
        </mxCell>
        <mxCell id="fIfAc7CNb0As84EqtWFV-3" style="edgeStyle=orthogonalEdgeStyle;rounded=0;orthogonalLoop=1;jettySize=auto;html=1;entryX=0.5;entryY=0;entryDx=0;entryDy=0;" edge="1" parent="1" source="ZAMnJX0O_FJBbpvH_zeM-10" target="fIfAc7CNb0As84EqtWFV-1">
          <mxGeometry relative="1" as="geometry" />
        </mxCell>
        <mxCell id="ZAMnJX0O_FJBbpvH_zeM-10" value="" style="rhombus;" vertex="1" parent="1">
          <mxGeometry x="690" y="745" width="30" height="30" as="geometry" />
        </mxCell>
        <mxCell id="ZAMnJX0O_FJBbpvH_zeM-11" value="Logout" style="html=1;align=center;verticalAlign=top;rounded=1;absoluteArcSize=1;arcSize=10;dashed=0;whiteSpace=wrap;" vertex="1" parent="1">
          <mxGeometry x="440" y="740" width="140" height="40" as="geometry" />
        </mxCell>
        <mxCell id="fIfAc7CNb0As84EqtWFV-1" value="" style="ellipse;html=1;shape=endState;fillColor=strokeColor;" vertex="1" parent="1">
          <mxGeometry x="690" y="895" width="30" height="30" as="geometry" />
        </mxCell>
        <mxCell id="jWy54cKQOk2yrm8p4zMF-1" value="Quên mật khẩu" style="html=1;align=center;verticalAlign=top;rounded=1;absoluteArcSize=1;arcSize=10;dashed=0;whiteSpace=wrap;" vertex="1" parent="1">
          <mxGeometry x="430" y="450" width="140" height="40" as="geometry" />
        </mxCell>
        <mxCell id="jWy54cKQOk2yrm8p4zMF-6" style="edgeStyle=orthogonalEdgeStyle;rounded=0;orthogonalLoop=1;jettySize=auto;html=1;" edge="1" parent="1" source="jWy54cKQOk2yrm8p4zMF-3">
          <mxGeometry relative="1" as="geometry">
            <mxPoint x="270" y="590" as="targetPoint" />
          </mxGeometry>
        </mxCell>
        <mxCell id="jWy54cKQOk2yrm8p4zMF-3" value="Điền thông tin email" style="html=1;align=center;verticalAlign=top;rounded=1;absoluteArcSize=1;arcSize=10;dashed=0;whiteSpace=wrap;" vertex="1" parent="1">
          <mxGeometry x="200" y="505" width="140" height="40" as="geometry" />
        </mxCell>
        <mxCell id="jWy54cKQOk2yrm8p4zMF-4" style="edgeStyle=orthogonalEdgeStyle;rounded=0;orthogonalLoop=1;jettySize=auto;html=1;entryX=0.5;entryY=0;entryDx=0;entryDy=0;" edge="1" parent="1" target="jWy54cKQOk2yrm8p4zMF-3">
          <mxGeometry relative="1" as="geometry">
            <mxPoint x="430" y="469.5" as="sourcePoint" />
            <mxPoint x="310" y="469.5" as="targetPoint" />
          </mxGeometry>
        </mxCell>
        <mxCell id="jWy54cKQOk2yrm8p4zMF-8" style="edgeStyle=orthogonalEdgeStyle;rounded=0;orthogonalLoop=1;jettySize=auto;html=1;" edge="1" parent="1" source="jWy54cKQOk2yrm8p4zMF-7">
          <mxGeometry relative="1" as="geometry">
            <mxPoint x="460" y="615" as="targetPoint" />
          </mxGeometry>
        </mxCell>
        <mxCell id="jWy54cKQOk2yrm8p4zMF-7" value="Điền mã&amp;nbsp;" style="html=1;align=center;verticalAlign=top;rounded=1;absoluteArcSize=1;arcSize=10;dashed=0;whiteSpace=wrap;" vertex="1" parent="1">
          <mxGeometry x="200" y="595" width="140" height="40" as="geometry" />
        </mxCell>
        <mxCell id="jWy54cKQOk2yrm8p4zMF-10" style="edgeStyle=orthogonalEdgeStyle;rounded=0;orthogonalLoop=1;jettySize=auto;html=1;entryX=0;entryY=0.5;entryDx=0;entryDy=0;" edge="1" parent="1" source="jWy54cKQOk2yrm8p4zMF-9" target="ZAMnJX0O_FJBbpvH_zeM-4">
          <mxGeometry relative="1" as="geometry" />
        </mxCell>
        <mxCell id="jWy54cKQOk2yrm8p4zMF-13" style="edgeStyle=orthogonalEdgeStyle;rounded=0;orthogonalLoop=1;jettySize=auto;html=1;entryX=0.5;entryY=1;entryDx=0;entryDy=0;" edge="1" parent="1" source="jWy54cKQOk2yrm8p4zMF-9" target="jWy54cKQOk2yrm8p4zMF-7">
          <mxGeometry relative="1" as="geometry">
            <Array as="points">
              <mxPoint x="475" y="655" />
              <mxPoint x="270" y="655" />
            </Array>
          </mxGeometry>
        </mxCell>
        <mxCell id="jWy54cKQOk2yrm8p4zMF-9" value="" style="rhombus;" vertex="1" parent="1">
          <mxGeometry x="460" y="600" width="30" height="30" as="geometry" />
        </mxCell>
        <mxCell id="jWy54cKQOk2yrm8p4zMF-12" style="edgeStyle=orthogonalEdgeStyle;rounded=0;orthogonalLoop=1;jettySize=auto;html=1;entryX=0;entryY=0.75;entryDx=0;entryDy=0;exitX=0.5;exitY=1;exitDx=0;exitDy=0;" edge="1" parent="1" source="jWy54cKQOk2yrm8p4zMF-11" target="jWy54cKQOk2yrm8p4zMF-7">
          <mxGeometry relative="1" as="geometry">
            <Array as="points">
              <mxPoint x="120" y="625" />
            </Array>
          </mxGeometry>
        </mxCell>
        <mxCell id="jWy54cKQOk2yrm8p4zMF-11" value="Hệ thống gửi mã về email" style="fontStyle=0;html=1;whiteSpace=wrap;" vertex="1" parent="1">
          <mxGeometry x="60" y="365" width="120" height="40" as="geometry" />
        </mxCell>
        <mxCell id="jWy54cKQOk2yrm8p4zMF-14" value="Không hợp lệ" style="text;html=1;align=center;verticalAlign=middle;resizable=0;points=[];autosize=1;strokeColor=none;fillColor=none;" vertex="1" parent="1">
          <mxGeometry x="300" y="658" width="100" height="30" as="geometry" />
        </mxCell>
      </root>
    </mxGraphModel>
  </diagram>
  <diagram id="THqku6XFnS8_p8aTK-1B" name="Edit_activity">
    <mxGraphModel dx="1050" dy="669" grid="1" gridSize="10" guides="1" tooltips="1" connect="1" arrows="1" fold="1" page="1" pageScale="1" pageWidth="3300" pageHeight="4681" math="0" shadow="0">
      <root>
        <mxCell id="0" />
        <mxCell id="1" parent="0" />
        <mxCell id="Bl6yhfQr1x0aOw9oCqGe-5" style="edgeStyle=orthogonalEdgeStyle;rounded=0;orthogonalLoop=1;jettySize=auto;html=1;entryX=0.5;entryY=0;entryDx=0;entryDy=0;" edge="1" parent="1" source="Bl6yhfQr1x0aOw9oCqGe-1" target="Bl6yhfQr1x0aOw9oCqGe-4">
          <mxGeometry relative="1" as="geometry" />
        </mxCell>
        <mxCell id="Bl6yhfQr1x0aOw9oCqGe-1" value="" style="ellipse;fillColor=strokeColor;html=1;" vertex="1" parent="1">
          <mxGeometry x="510" y="100" width="30" height="30" as="geometry" />
        </mxCell>
        <mxCell id="Bl6yhfQr1x0aOw9oCqGe-3" style="edgeStyle=orthogonalEdgeStyle;rounded=0;orthogonalLoop=1;jettySize=auto;html=1;entryX=0;entryY=0.5;entryDx=0;entryDy=0;" edge="1" parent="1" source="Bl6yhfQr1x0aOw9oCqGe-2" target="Bl6yhfQr1x0aOw9oCqGe-1">
          <mxGeometry relative="1" as="geometry" />
        </mxCell>
        <mxCell id="Bl6yhfQr1x0aOw9oCqGe-2" value="Người dùng đã đăng nhập" style="fontStyle=0;html=1;whiteSpace=wrap;" vertex="1" parent="1">
          <mxGeometry x="120" y="95" width="120" height="40" as="geometry" />
        </mxCell>
        <mxCell id="suPZwCp8Pu9VuF_BmDS_-1" style="edgeStyle=orthogonalEdgeStyle;rounded=0;orthogonalLoop=1;jettySize=auto;html=1;" edge="1" parent="1" source="Bl6yhfQr1x0aOw9oCqGe-4">
          <mxGeometry relative="1" as="geometry">
            <mxPoint x="525" y="380" as="targetPoint" />
          </mxGeometry>
        </mxCell>
        <mxCell id="Bl6yhfQr1x0aOw9oCqGe-4" value="Edit thông tin ( điền user_form và profile_form)" style="html=1;align=center;verticalAlign=top;rounded=1;absoluteArcSize=1;arcSize=10;dashed=0;whiteSpace=wrap;" vertex="1" parent="1">
          <mxGeometry x="442.5" y="210" width="165" height="50" as="geometry" />
        </mxCell>
        <mxCell id="suPZwCp8Pu9VuF_BmDS_-5" style="edgeStyle=orthogonalEdgeStyle;rounded=0;orthogonalLoop=1;jettySize=auto;html=1;entryX=0.5;entryY=0;entryDx=0;entryDy=0;" edge="1" parent="1" source="suPZwCp8Pu9VuF_BmDS_-2" target="suPZwCp8Pu9VuF_BmDS_-4">
          <mxGeometry relative="1" as="geometry" />
        </mxCell>
        <mxCell id="suPZwCp8Pu9VuF_BmDS_-11" style="edgeStyle=orthogonalEdgeStyle;rounded=0;orthogonalLoop=1;jettySize=auto;html=1;entryX=0;entryY=0.5;entryDx=0;entryDy=0;" edge="1" parent="1" source="suPZwCp8Pu9VuF_BmDS_-2" target="suPZwCp8Pu9VuF_BmDS_-10">
          <mxGeometry relative="1" as="geometry" />
        </mxCell>
        <mxCell id="suPZwCp8Pu9VuF_BmDS_-2" value="" style="rhombus;" vertex="1" parent="1">
          <mxGeometry x="510" y="380" width="30" height="30" as="geometry" />
        </mxCell>
        <mxCell id="suPZwCp8Pu9VuF_BmDS_-9" style="edgeStyle=orthogonalEdgeStyle;rounded=0;orthogonalLoop=1;jettySize=auto;html=1;" edge="1" parent="1" source="suPZwCp8Pu9VuF_BmDS_-4" target="suPZwCp8Pu9VuF_BmDS_-8">
          <mxGeometry relative="1" as="geometry" />
        </mxCell>
        <mxCell id="suPZwCp8Pu9VuF_BmDS_-4" value="Thông báo pop up cập nhật thành công" style="html=1;align=center;verticalAlign=top;rounded=1;absoluteArcSize=1;arcSize=10;dashed=0;whiteSpace=wrap;" vertex="1" parent="1">
          <mxGeometry x="442.5" y="470" width="165" height="50" as="geometry" />
        </mxCell>
        <mxCell id="suPZwCp8Pu9VuF_BmDS_-7" value="không hợp lệ" style="text;html=1;align=center;verticalAlign=middle;resizable=0;points=[];autosize=1;strokeColor=none;fillColor=none;" vertex="1" parent="1">
          <mxGeometry x="560" y="360" width="90" height="30" as="geometry" />
        </mxCell>
        <mxCell id="suPZwCp8Pu9VuF_BmDS_-8" value="" style="ellipse;html=1;shape=endState;fillColor=strokeColor;" vertex="1" parent="1">
          <mxGeometry x="510" y="610" width="30" height="30" as="geometry" />
        </mxCell>
        <mxCell id="suPZwCp8Pu9VuF_BmDS_-12" style="edgeStyle=orthogonalEdgeStyle;rounded=0;orthogonalLoop=1;jettySize=auto;html=1;entryX=1;entryY=0.5;entryDx=0;entryDy=0;exitX=0.5;exitY=0;exitDx=0;exitDy=0;" edge="1" parent="1" source="suPZwCp8Pu9VuF_BmDS_-10" target="Bl6yhfQr1x0aOw9oCqGe-4">
          <mxGeometry relative="1" as="geometry">
            <mxPoint x="762.5" y="350" as="sourcePoint" />
            <mxPoint x="710" y="190" as="targetPoint" />
          </mxGeometry>
        </mxCell>
        <mxCell id="suPZwCp8Pu9VuF_BmDS_-10" value="Thông báo pop up cập nhật không thành công" style="html=1;align=center;verticalAlign=top;rounded=1;absoluteArcSize=1;arcSize=10;dashed=0;whiteSpace=wrap;" vertex="1" parent="1">
          <mxGeometry x="660" y="370" width="165" height="50" as="geometry" />
        </mxCell>
      </root>
    </mxGraphModel>
  </diagram>
  <diagram id="UjE2sg5HHjDZ0DAAH4zq" name="Flashcard_activity">
    <mxGraphModel dx="1500" dy="956" grid="1" gridSize="10" guides="1" tooltips="1" connect="1" arrows="1" fold="1" page="1" pageScale="1" pageWidth="3300" pageHeight="4681" math="0" shadow="0">
      <root>
        <mxCell id="0" />
        <mxCell id="1" parent="0" />
        <mxCell id="PTUfjIbUAI21GaRFJDCH-3" style="edgeStyle=orthogonalEdgeStyle;rounded=0;orthogonalLoop=1;jettySize=auto;html=1;" edge="1" parent="1" source="1BMEtl9659J0HVE9FLUO-1">
          <mxGeometry relative="1" as="geometry">
            <mxPoint x="855" y="560" as="targetPoint" />
          </mxGeometry>
        </mxCell>
        <mxCell id="1BMEtl9659J0HVE9FLUO-1" value="" style="ellipse;fillColor=strokeColor;html=1;" vertex="1" parent="1">
          <mxGeometry x="840" y="445" width="30" height="30" as="geometry" />
        </mxCell>
        <mxCell id="PTUfjIbUAI21GaRFJDCH-1" style="edgeStyle=orthogonalEdgeStyle;rounded=0;orthogonalLoop=1;jettySize=auto;html=1;entryX=0;entryY=0.5;entryDx=0;entryDy=0;" edge="1" parent="1" source="1BMEtl9659J0HVE9FLUO-2" target="1BMEtl9659J0HVE9FLUO-1">
          <mxGeometry relative="1" as="geometry" />
        </mxCell>
        <mxCell id="1BMEtl9659J0HVE9FLUO-2" value="Người dùng lựa chọn ứng dụng flash_card" style="fontStyle=0;html=1;whiteSpace=wrap;" vertex="1" parent="1">
          <mxGeometry x="470" y="440" width="160" height="40" as="geometry" />
        </mxCell>
        <mxCell id="PTUfjIbUAI21GaRFJDCH-2" value="Edit&amp;nbsp;" style="shape=note2;boundedLbl=1;whiteSpace=wrap;html=1;size=25;verticalAlign=top;align=center;" vertex="1" parent="1">
          <mxGeometry x="640" y="320" width="120" height="60" as="geometry" />
        </mxCell>
        <mxCell id="PTUfjIbUAI21GaRFJDCH-4" value="List các bộ từ&amp;nbsp;" style="html=1;align=center;verticalAlign=top;rounded=1;absoluteArcSize=1;arcSize=10;dashed=0;whiteSpace=wrap;" vertex="1" parent="1">
          <mxGeometry x="785" y="560" width="140" height="40" as="geometry" />
        </mxCell>
        <mxCell id="PTUfjIbUAI21GaRFJDCH-8" value="Xóa bộ từ" style="html=1;align=center;verticalAlign=top;rounded=1;absoluteArcSize=1;arcSize=10;dashed=0;whiteSpace=wrap;" vertex="1" parent="1">
          <mxGeometry x="1090" y="725" width="140" height="40" as="geometry" />
        </mxCell>
        <mxCell id="PTUfjIbUAI21GaRFJDCH-14" value="" style="edgeStyle=orthogonalEdgeStyle;rounded=0;orthogonalLoop=1;jettySize=auto;html=1;" edge="1" parent="1" source="PTUfjIbUAI21GaRFJDCH-4">
          <mxGeometry relative="1" as="geometry">
            <mxPoint x="855" y="687.5" as="targetPoint" />
            <mxPoint x="855" y="600" as="sourcePoint" />
          </mxGeometry>
        </mxCell>
        <mxCell id="PTUfjIbUAI21GaRFJDCH-21" style="edgeStyle=orthogonalEdgeStyle;rounded=0;orthogonalLoop=1;jettySize=auto;html=1;entryX=0;entryY=0.75;entryDx=0;entryDy=0;" edge="1" parent="1">
          <mxGeometry relative="1" as="geometry">
            <mxPoint x="854.8800000000001" y="672.44" as="sourcePoint" />
            <mxPoint x="1089.94" y="755" as="targetPoint" />
            <Array as="points">
              <mxPoint x="855" y="755" />
            </Array>
          </mxGeometry>
        </mxCell>
        <mxCell id="PTUfjIbUAI21GaRFJDCH-23" style="edgeStyle=orthogonalEdgeStyle;rounded=0;orthogonalLoop=1;jettySize=auto;html=1;entryX=0.5;entryY=0;entryDx=0;entryDy=0;" edge="1" parent="1" source="PTUfjIbUAI21GaRFJDCH-20" target="PTUfjIbUAI21GaRFJDCH-22">
          <mxGeometry relative="1" as="geometry" />
        </mxCell>
        <mxCell id="PTUfjIbUAI21GaRFJDCH-28" style="edgeStyle=orthogonalEdgeStyle;rounded=0;orthogonalLoop=1;jettySize=auto;html=1;entryX=1;entryY=0.5;entryDx=0;entryDy=0;" edge="1" parent="1" source="PTUfjIbUAI21GaRFJDCH-20" target="PTUfjIbUAI21GaRFJDCH-24">
          <mxGeometry relative="1" as="geometry">
            <Array as="points">
              <mxPoint x="855" y="760" />
            </Array>
          </mxGeometry>
        </mxCell>
        <mxCell id="PTUfjIbUAI21GaRFJDCH-29" style="edgeStyle=orthogonalEdgeStyle;rounded=0;orthogonalLoop=1;jettySize=auto;html=1;entryX=0;entryY=0.5;entryDx=0;entryDy=0;" edge="1" parent="1" source="PTUfjIbUAI21GaRFJDCH-20" target="PTUfjIbUAI21GaRFJDCH-27">
          <mxGeometry relative="1" as="geometry">
            <Array as="points">
              <mxPoint x="855" y="830" />
            </Array>
          </mxGeometry>
        </mxCell>
        <mxCell id="PTUfjIbUAI21GaRFJDCH-20" value="" style="html=1;points=[];perimeter=orthogonalPerimeter;fillColor=strokeColor;rotation=90;" vertex="1" parent="1">
          <mxGeometry x="852.5" y="660" width="5" height="80" as="geometry" />
        </mxCell>
        <mxCell id="PTUfjIbUAI21GaRFJDCH-38" style="edgeStyle=orthogonalEdgeStyle;rounded=0;orthogonalLoop=1;jettySize=auto;html=1;" edge="1" parent="1" source="PTUfjIbUAI21GaRFJDCH-22">
          <mxGeometry relative="1" as="geometry">
            <mxPoint x="855" y="1120" as="targetPoint" />
          </mxGeometry>
        </mxCell>
        <mxCell id="PTUfjIbUAI21GaRFJDCH-22" value="Chỉnh sửa thông tin bộ từ" style="html=1;align=center;verticalAlign=top;rounded=1;absoluteArcSize=1;arcSize=10;dashed=0;whiteSpace=wrap;" vertex="1" parent="1">
          <mxGeometry x="752.5" y="910" width="205" height="60" as="geometry" />
        </mxCell>
        <mxCell id="PTUfjIbUAI21GaRFJDCH-24" value="Xem bộ từ&amp;nbsp;" style="html=1;align=center;verticalAlign=top;rounded=1;absoluteArcSize=1;arcSize=10;dashed=0;whiteSpace=wrap;" vertex="1" parent="1">
          <mxGeometry x="450" y="740" width="140" height="40" as="geometry" />
        </mxCell>
        <mxCell id="PTUfjIbUAI21GaRFJDCH-27" value="Thêm&amp;nbsp; bộ từ mới&amp;nbsp;" style="html=1;align=center;verticalAlign=top;rounded=1;absoluteArcSize=1;arcSize=10;dashed=0;whiteSpace=wrap;" vertex="1" parent="1">
          <mxGeometry x="1090" y="810" width="140" height="40" as="geometry" />
        </mxCell>
        <mxCell id="PTUfjIbUAI21GaRFJDCH-35" style="edgeStyle=orthogonalEdgeStyle;rounded=0;orthogonalLoop=1;jettySize=auto;html=1;entryX=0.5;entryY=1;entryDx=0;entryDy=0;" edge="1" parent="1" source="PTUfjIbUAI21GaRFJDCH-34" target="PTUfjIbUAI21GaRFJDCH-27">
          <mxGeometry relative="1" as="geometry" />
        </mxCell>
        <mxCell id="PTUfjIbUAI21GaRFJDCH-34" value="Chứa luồng riêng" style="fontStyle=0;html=1;whiteSpace=wrap;" vertex="1" parent="1">
          <mxGeometry x="1080" y="940" width="160" height="40" as="geometry" />
        </mxCell>
        <mxCell id="PTUfjIbUAI21GaRFJDCH-37" style="edgeStyle=orthogonalEdgeStyle;rounded=0;orthogonalLoop=1;jettySize=auto;html=1;entryX=0.5;entryY=0;entryDx=0;entryDy=0;" edge="1" parent="1" source="PTUfjIbUAI21GaRFJDCH-36" target="PTUfjIbUAI21GaRFJDCH-24">
          <mxGeometry relative="1" as="geometry">
            <mxPoint x="520" y="730" as="targetPoint" />
            <Array as="points">
              <mxPoint x="380" y="700" />
              <mxPoint x="520" y="700" />
            </Array>
          </mxGeometry>
        </mxCell>
        <mxCell id="PTUfjIbUAI21GaRFJDCH-36" value="Chứa luồng riêng" style="fontStyle=0;html=1;whiteSpace=wrap;" vertex="1" parent="1">
          <mxGeometry x="300" y="630" width="160" height="40" as="geometry" />
        </mxCell>
        <mxCell id="PTUfjIbUAI21GaRFJDCH-45" style="edgeStyle=orthogonalEdgeStyle;rounded=0;orthogonalLoop=1;jettySize=auto;html=1;" edge="1" parent="1" source="PTUfjIbUAI21GaRFJDCH-42" target="PTUfjIbUAI21GaRFJDCH-43">
          <mxGeometry relative="1" as="geometry" />
        </mxCell>
        <mxCell id="PTUfjIbUAI21GaRFJDCH-46" style="edgeStyle=orthogonalEdgeStyle;rounded=0;orthogonalLoop=1;jettySize=auto;html=1;entryX=0.5;entryY=0;entryDx=0;entryDy=0;" edge="1" parent="1" source="PTUfjIbUAI21GaRFJDCH-42" target="PTUfjIbUAI21GaRFJDCH-44">
          <mxGeometry relative="1" as="geometry" />
        </mxCell>
        <mxCell id="PTUfjIbUAI21GaRFJDCH-42" value="" style="html=1;points=[];perimeter=orthogonalPerimeter;fillColor=strokeColor;rotation=90;" vertex="1" parent="1">
          <mxGeometry x="852.5" y="1090" width="5" height="80" as="geometry" />
        </mxCell>
        <mxCell id="PTUfjIbUAI21GaRFJDCH-48" style="edgeStyle=orthogonalEdgeStyle;rounded=0;orthogonalLoop=1;jettySize=auto;html=1;entryX=0.5;entryY=0;entryDx=0;entryDy=0;" edge="1" parent="1" source="PTUfjIbUAI21GaRFJDCH-43" target="PTUfjIbUAI21GaRFJDCH-49">
          <mxGeometry relative="1" as="geometry">
            <mxPoint x="682.5" y="1380" as="targetPoint" />
          </mxGeometry>
        </mxCell>
        <mxCell id="PTUfjIbUAI21GaRFJDCH-43" value="Chỉnh sửa thông tin studyset_form" style="html=1;align=center;verticalAlign=top;rounded=1;absoluteArcSize=1;arcSize=10;dashed=0;whiteSpace=wrap;" vertex="1" parent="1">
          <mxGeometry x="580" y="1200" width="205" height="60" as="geometry" />
        </mxCell>
        <mxCell id="PTUfjIbUAI21GaRFJDCH-56" style="edgeStyle=orthogonalEdgeStyle;rounded=0;orthogonalLoop=1;jettySize=auto;html=1;entryX=0.5;entryY=0;entryDx=0;entryDy=0;" edge="1" parent="1" source="PTUfjIbUAI21GaRFJDCH-44">
          <mxGeometry relative="1" as="geometry">
            <mxPoint x="1177.5" y="1390" as="targetPoint" />
          </mxGeometry>
        </mxCell>
        <mxCell id="PTUfjIbUAI21GaRFJDCH-44" value="Chỉnh sửa thông tin của từng từ trong form" style="html=1;align=center;verticalAlign=top;rounded=1;absoluteArcSize=1;arcSize=10;dashed=0;whiteSpace=wrap;" vertex="1" parent="1">
          <mxGeometry x="1075" y="1200" width="205" height="60" as="geometry" />
        </mxCell>
        <mxCell id="PTUfjIbUAI21GaRFJDCH-51" style="edgeStyle=orthogonalEdgeStyle;rounded=0;orthogonalLoop=1;jettySize=auto;html=1;entryX=0.418;entryY=0.492;entryDx=0;entryDy=0;entryPerimeter=0;" edge="1" parent="1" source="PTUfjIbUAI21GaRFJDCH-49" target="PTUfjIbUAI21GaRFJDCH-64">
          <mxGeometry relative="1" as="geometry">
            <mxPoint x="682.5" y="1540" as="targetPoint" />
            <Array as="points">
              <mxPoint x="683" y="1640" />
              <mxPoint x="778" y="1640" />
            </Array>
          </mxGeometry>
        </mxCell>
        <mxCell id="PTUfjIbUAI21GaRFJDCH-52" style="edgeStyle=orthogonalEdgeStyle;rounded=0;orthogonalLoop=1;jettySize=auto;html=1;entryX=0;entryY=0.5;entryDx=0;entryDy=0;" edge="1" parent="1" source="PTUfjIbUAI21GaRFJDCH-49" target="PTUfjIbUAI21GaRFJDCH-43">
          <mxGeometry relative="1" as="geometry">
            <Array as="points">
              <mxPoint x="560" y="1405" />
              <mxPoint x="560" y="1230" />
            </Array>
          </mxGeometry>
        </mxCell>
        <mxCell id="PTUfjIbUAI21GaRFJDCH-49" value="" style="rhombus;" vertex="1" parent="1">
          <mxGeometry x="667.5" y="1390" width="30" height="30" as="geometry" />
        </mxCell>
        <mxCell id="PTUfjIbUAI21GaRFJDCH-53" value="Form không hợp lệ" style="text;html=1;align=center;verticalAlign=middle;resizable=0;points=[];autosize=1;strokeColor=none;fillColor=none;" vertex="1" parent="1">
          <mxGeometry x="440" y="1310" width="120" height="30" as="geometry" />
        </mxCell>
        <mxCell id="PTUfjIbUAI21GaRFJDCH-62" style="edgeStyle=orthogonalEdgeStyle;rounded=0;orthogonalLoop=1;jettySize=auto;html=1;" edge="1" parent="1" source="PTUfjIbUAI21GaRFJDCH-58" target="PTUfjIbUAI21GaRFJDCH-59">
          <mxGeometry relative="1" as="geometry" />
        </mxCell>
        <mxCell id="PTUfjIbUAI21GaRFJDCH-63" style="edgeStyle=orthogonalEdgeStyle;rounded=0;orthogonalLoop=1;jettySize=auto;html=1;entryX=0.5;entryY=0;entryDx=0;entryDy=0;" edge="1" parent="1" source="PTUfjIbUAI21GaRFJDCH-58" target="PTUfjIbUAI21GaRFJDCH-60">
          <mxGeometry relative="1" as="geometry" />
        </mxCell>
        <mxCell id="PTUfjIbUAI21GaRFJDCH-58" value="" style="html=1;points=[];perimeter=orthogonalPerimeter;fillColor=strokeColor;rotation=90;" vertex="1" parent="1">
          <mxGeometry x="1175" y="1360" width="5" height="80" as="geometry" />
        </mxCell>
        <mxCell id="PTUfjIbUAI21GaRFJDCH-59" value="Xóa word" style="html=1;align=center;verticalAlign=top;rounded=1;absoluteArcSize=1;arcSize=10;dashed=0;whiteSpace=wrap;" vertex="1" parent="1">
          <mxGeometry x="930" y="1450" width="205" height="60" as="geometry" />
        </mxCell>
        <mxCell id="PTUfjIbUAI21GaRFJDCH-66" style="edgeStyle=orthogonalEdgeStyle;rounded=0;orthogonalLoop=1;jettySize=auto;html=1;" edge="1" parent="1" source="PTUfjIbUAI21GaRFJDCH-60">
          <mxGeometry relative="1" as="geometry">
            <mxPoint x="1322.5" y="1630" as="targetPoint" />
          </mxGeometry>
        </mxCell>
        <mxCell id="PTUfjIbUAI21GaRFJDCH-60" value="Chỉnh sửa thông tin word" style="html=1;align=center;verticalAlign=top;rounded=1;absoluteArcSize=1;arcSize=10;dashed=0;whiteSpace=wrap;" vertex="1" parent="1">
          <mxGeometry x="1220" y="1450" width="205" height="60" as="geometry" />
        </mxCell>
        <mxCell id="PTUfjIbUAI21GaRFJDCH-72" style="edgeStyle=orthogonalEdgeStyle;rounded=0;orthogonalLoop=1;jettySize=auto;html=1;" edge="1" parent="1" source="PTUfjIbUAI21GaRFJDCH-64">
          <mxGeometry relative="1" as="geometry">
            <mxPoint x="777.5" y="1830" as="targetPoint" />
          </mxGeometry>
        </mxCell>
        <mxCell id="PTUfjIbUAI21GaRFJDCH-64" value="" style="html=1;points=[];perimeter=orthogonalPerimeter;fillColor=strokeColor;rotation=90;" vertex="1" parent="1">
          <mxGeometry x="775" y="1680" width="5" height="80" as="geometry" />
        </mxCell>
        <mxCell id="PTUfjIbUAI21GaRFJDCH-65" style="edgeStyle=orthogonalEdgeStyle;rounded=0;orthogonalLoop=1;jettySize=auto;html=1;entryX=0.982;entryY=0.527;entryDx=0;entryDy=0;entryPerimeter=0;" edge="1" parent="1" source="PTUfjIbUAI21GaRFJDCH-59" target="PTUfjIbUAI21GaRFJDCH-64">
          <mxGeometry relative="1" as="geometry">
            <Array as="points">
              <mxPoint x="874" y="1480" />
              <mxPoint x="874" y="1640" />
              <mxPoint x="775" y="1640" />
            </Array>
          </mxGeometry>
        </mxCell>
        <mxCell id="PTUfjIbUAI21GaRFJDCH-68" style="edgeStyle=orthogonalEdgeStyle;rounded=0;orthogonalLoop=1;jettySize=auto;html=1;entryX=1;entryY=0.5;entryDx=0;entryDy=0;" edge="1" parent="1" source="PTUfjIbUAI21GaRFJDCH-67" target="PTUfjIbUAI21GaRFJDCH-60">
          <mxGeometry relative="1" as="geometry" />
        </mxCell>
        <mxCell id="PTUfjIbUAI21GaRFJDCH-67" value="" style="rhombus;" vertex="1" parent="1">
          <mxGeometry x="1307.5" y="1630" width="30" height="30" as="geometry" />
        </mxCell>
        <mxCell id="PTUfjIbUAI21GaRFJDCH-70" value="Không hợp lệ" style="text;html=1;align=center;verticalAlign=middle;resizable=0;points=[];autosize=1;strokeColor=none;fillColor=none;" vertex="1" parent="1">
          <mxGeometry x="1330" y="1578" width="100" height="30" as="geometry" />
        </mxCell>
        <mxCell id="PTUfjIbUAI21GaRFJDCH-71" style="edgeStyle=orthogonalEdgeStyle;rounded=0;orthogonalLoop=1;jettySize=auto;html=1;" edge="1" parent="1" source="PTUfjIbUAI21GaRFJDCH-67">
          <mxGeometry relative="1" as="geometry">
            <mxPoint x="778" y="1725" as="targetPoint" />
            <Array as="points">
              <mxPoint x="778" y="1640" />
            </Array>
          </mxGeometry>
        </mxCell>
        <mxCell id="PTUfjIbUAI21GaRFJDCH-73" value="" style="ellipse;html=1;shape=endState;fillColor=strokeColor;" vertex="1" parent="1">
          <mxGeometry x="763" y="1840" width="30" height="30" as="geometry" />
        </mxCell>
      </root>
    </mxGraphModel>
  </diagram>
</mxfile>
